<?xml version="1.0" encoding="UTF-8" standalone="no"?>
<!DOCTYPE svg PUBLIC "-//W3C//DTD SVG 1.1//EN"
 "http://www.w3.org/Graphics/SVG/1.1/DTD/svg11.dtd">
<!-- Generated by graphviz version 2.28.0 (20171202.0115)
 -->
<!-- Title: snakemake_dag Pages: 1 -->
<svg width="442pt" height="266pt"
 viewBox="0.00 0.00 442.00 266.00" xmlns="http://www.w3.org/2000/svg" xmlns:xlink="http://www.w3.org/1999/xlink">
<g id="graph1" class="graph" transform="scale(1 1) rotate(0) translate(4 262)">
<title>snakemake_dag</title>
<polygon fill="white" stroke="white" points="-4,5 -4,-262 439,-262 439,5 -4,5"/>
<!-- 0 -->
<g id="node1" class="node"><title>0</title>
<polyline fill="none" stroke="#78d856" stroke-width="2" points="98.25,-111 11.75,-111 "/>
<path fill="none" stroke="#78d856" stroke-width="2" d="M11.75,-111C5.75,-111 -0.25,-105 -0.25,-99"/>
<polyline fill="none" stroke="#78d856" stroke-width="2" points="-0.25,-99 -0.25,-87 "/>
<path fill="none" stroke="#78d856" stroke-width="2" d="M-0.25,-87C-0.25,-81 5.75,-75 11.75,-75"/>
<polyline fill="none" stroke="#78d856" stroke-width="2" points="11.75,-75 98.25,-75 "/>
<path fill="none" stroke="#78d856" stroke-width="2" d="M98.25,-75C104.25,-75 110.25,-81 110.25,-87"/>
<polyline fill="none" stroke="#78d856" stroke-width="2" points="110.25,-87 110.25,-99 "/>
<path fill="none" stroke="#78d856" stroke-width="2" d="M110.25,-99C110.25,-105 104.25,-111 98.25,-111"/>
<text text-anchor="middle" x="55" y="-90.5" font-family="sans" font-size="10.00">ciri_run_ciri_RNASE</text>
</g>
<!-- 1 -->
<g id="node2" class="node"><title>1</title>
<polyline fill="none" stroke="#56d8c9" stroke-width="2" stroke-dasharray="5,2" points="228,-186 124,-186 "/>
<path fill="none" stroke="#56d8c9" stroke-width="2" stroke-dasharray="5,2" d="M124,-186C118,-186 112,-180 112,-174"/>
<polyline fill="none" stroke="#56d8c9" stroke-width="2" stroke-dasharray="5,2" points="112,-174 112,-162 "/>
<path fill="none" stroke="#56d8c9" stroke-width="2" stroke-dasharray="5,2" d="M112,-162C112,-156 118,-150 124,-150"/>
<polyline fill="none" stroke="#56d8c9" stroke-width="2" stroke-dasharray="5,2" points="124,-150 228,-150 "/>
<path fill="none" stroke="#56d8c9" stroke-width="2" stroke-dasharray="5,2" d="M228,-150C234,-150 240,-156 240,-162"/>
<polyline fill="none" stroke="#56d8c9" stroke-width="2" stroke-dasharray="5,2" points="240,-162 240,-174 "/>
<path fill="none" stroke="#56d8c9" stroke-width="2" stroke-dasharray="5,2" d="M240,-174C240,-180 234,-186 228,-186"/>
<text text-anchor="middle" x="176" y="-171" font-family="sans" font-size="10.00">pre_cutadapt</text>
<text text-anchor="middle" x="176" y="-160" font-family="sans" font-size="10.00">sample_label: APO&#45;1&#45;A</text>
</g>
<!-- 1&#45;&gt;0 -->
<g id="edge2" class="edge"><title>1&#45;&gt;0</title>
<path fill="none" stroke="grey" stroke-width="2" d="M147.631,-149.885C131.095,-139.908 110.047,-127.21 92.1948,-116.44"/>
<polygon fill="grey" stroke="grey" points="93.5618,-113.177 83.1914,-111.008 89.9458,-119.171 93.5618,-113.177"/>
</g>
<!-- 3 -->
<g id="node4" class="node"><title>3</title>
<polyline fill="none" stroke="#56a2d8" stroke-width="2" stroke-dasharray="5,2" points="211,-111 141,-111 "/>
<path fill="none" stroke="#56a2d8" stroke-width="2" stroke-dasharray="5,2" d="M141,-111C135,-111 129,-105 129,-99"/>
<polyline fill="none" stroke="#56a2d8" stroke-width="2" stroke-dasharray="5,2" points="129,-99 129,-87 "/>
<path fill="none" stroke="#56a2d8" stroke-width="2" stroke-dasharray="5,2" d="M129,-87C129,-81 135,-75 141,-75"/>
<polyline fill="none" stroke="#56a2d8" stroke-width="2" stroke-dasharray="5,2" points="141,-75 211,-75 "/>
<path fill="none" stroke="#56a2d8" stroke-width="2" stroke-dasharray="5,2" d="M211,-75C217,-75 223,-81 223,-87"/>
<polyline fill="none" stroke="#56a2d8" stroke-width="2" stroke-dasharray="5,2" points="223,-87 223,-99 "/>
<path fill="none" stroke="#56a2d8" stroke-width="2" stroke-dasharray="5,2" d="M223,-99C223,-105 217,-111 211,-111"/>
<text text-anchor="middle" x="176" y="-90.5" font-family="sans" font-size="10.00">pre_align_reads</text>
</g>
<!-- 1&#45;&gt;3 -->
<g id="edge6" class="edge"><title>1&#45;&gt;3</title>
<path fill="none" stroke="grey" stroke-width="2" d="M176,-149.7C176,-141.245 176,-130.869 176,-121.373"/>
<polygon fill="grey" stroke="grey" points="179.5,-121.176 176,-111.176 172.5,-121.176 179.5,-121.176"/>
</g>
<!-- 4 -->
<g id="node5" class="node"><title>4</title>
<polyline fill="none" stroke="#56d87b" stroke-width="2" points="422.5,-113.5 253.5,-113.5 "/>
<path fill="none" stroke="#56d87b" stroke-width="2" d="M253.5,-113.5C247.5,-113.5 241.5,-107.5 241.5,-101.5"/>
<polyline fill="none" stroke="#56d87b" stroke-width="2" points="241.5,-101.5 241.5,-84.5 "/>
<path fill="none" stroke="#56d87b" stroke-width="2" d="M241.5,-84.5C241.5,-78.5 247.5,-72.5 253.5,-72.5"/>
<polyline fill="none" stroke="#56d87b" stroke-width="2" points="253.5,-72.5 422.5,-72.5 "/>
<path fill="none" stroke="#56d87b" stroke-width="2" d="M422.5,-72.5C428.5,-72.5 434.5,-78.5 434.5,-84.5"/>
<polyline fill="none" stroke="#56d87b" stroke-width="2" points="434.5,-84.5 434.5,-101.5 "/>
<path fill="none" stroke="#56d87b" stroke-width="2" d="M434.5,-101.5C434.5,-107.5 428.5,-113.5 422.5,-113.5"/>
<text text-anchor="middle" x="338" y="-101.5" font-family="sans" font-size="10.00">ciri_run_ciri_polyA_rnase_coorection</text>
<text text-anchor="middle" x="338" y="-90.5" font-family="sans" font-size="10.00">rnase_sample_label: APO&#45;1&#45;R</text>
<text text-anchor="middle" x="338" y="-79.5" font-family="sans" font-size="10.00">total_sample_label: APO&#45;1&#45;A</text>
</g>
<!-- 1&#45;&gt;4 -->
<g id="edge8" class="edge"><title>1&#45;&gt;4</title>
<path fill="none" stroke="grey" stroke-width="2" d="M213.982,-149.885C235.188,-140.329 261.937,-128.276 285.158,-117.811"/>
<polygon fill="grey" stroke="grey" points="286.853,-120.887 294.532,-113.587 283.977,-114.505 286.853,-120.887"/>
</g>
<!-- 2 -->
<g id="node3" class="node"><title>2</title>
<polyline fill="none" stroke="#d85656" stroke-width="2" stroke-dasharray="5,2" points="212.25,-36 139.75,-36 "/>
<path fill="none" stroke="#d85656" stroke-width="2" stroke-dasharray="5,2" d="M139.75,-36C133.75,-36 127.75,-30 127.75,-24"/>
<polyline fill="none" stroke="#d85656" stroke-width="2" stroke-dasharray="5,2" points="127.75,-24 127.75,-12 "/>
<path fill="none" stroke="#d85656" stroke-width="2" stroke-dasharray="5,2" d="M127.75,-12C127.75,-6 133.75,-0 139.75,-0"/>
<polyline fill="none" stroke="#d85656" stroke-width="2" stroke-dasharray="5,2" points="139.75,-0 212.25,-0 "/>
<path fill="none" stroke="#d85656" stroke-width="2" stroke-dasharray="5,2" d="M212.25,-0C218.25,-0 224.25,-6 224.25,-12"/>
<polyline fill="none" stroke="#d85656" stroke-width="2" stroke-dasharray="5,2" points="224.25,-12 224.25,-24 "/>
<path fill="none" stroke="#d85656" stroke-width="2" stroke-dasharray="5,2" d="M224.25,-24C224.25,-30 218.25,-36 212.25,-36"/>
<text text-anchor="middle" x="176" y="-15.5" font-family="sans" font-size="10.00">pre_index_bams</text>
</g>
<!-- 3&#45;&gt;2 -->
<g id="edge4" class="edge"><title>3&#45;&gt;2</title>
<path fill="none" stroke="grey" stroke-width="2" d="M176,-74.7C176,-66.2452 176,-55.8688 176,-46.3732"/>
<polygon fill="grey" stroke="grey" points="179.5,-46.1758 176,-36.1758 172.5,-46.1758 179.5,-46.1758"/>
</g>
<!-- 5 -->
<g id="node6" class="node"><title>5</title>
<polyline fill="none" stroke="#78d856" stroke-width="2" stroke-dasharray="5,2" points="381.25,-186 294.75,-186 "/>
<path fill="none" stroke="#78d856" stroke-width="2" stroke-dasharray="5,2" d="M294.75,-186C288.75,-186 282.75,-180 282.75,-174"/>
<polyline fill="none" stroke="#78d856" stroke-width="2" stroke-dasharray="5,2" points="282.75,-174 282.75,-162 "/>
<path fill="none" stroke="#78d856" stroke-width="2" stroke-dasharray="5,2" d="M282.75,-162C282.75,-156 288.75,-150 294.75,-150"/>
<polyline fill="none" stroke="#78d856" stroke-width="2" stroke-dasharray="5,2" points="294.75,-150 381.25,-150 "/>
<path fill="none" stroke="#78d856" stroke-width="2" stroke-dasharray="5,2" d="M381.25,-150C387.25,-150 393.25,-156 393.25,-162"/>
<polyline fill="none" stroke="#78d856" stroke-width="2" stroke-dasharray="5,2" points="393.25,-162 393.25,-174 "/>
<path fill="none" stroke="#78d856" stroke-width="2" stroke-dasharray="5,2" d="M393.25,-174C393.25,-180 387.25,-186 381.25,-186"/>
<text text-anchor="middle" x="338" y="-165.5" font-family="sans" font-size="10.00">ciri_run_ciri_RNASE</text>
</g>
<!-- 5&#45;&gt;4 -->
<g id="edge10" class="edge"><title>5&#45;&gt;4</title>
<path fill="none" stroke="grey" stroke-width="2" d="M338,-149.7C338,-142.026 338,-132.77 338,-124.026"/>
<polygon fill="grey" stroke="grey" points="341.5,-123.755 338,-113.755 334.5,-123.755 341.5,-123.755"/>
</g>
<!-- 6 -->
<g id="node7" class="node"><title>6</title>
<polyline fill="none" stroke="#56d8c9" stroke-width="2" stroke-dasharray="5,2" points="390,-258 286,-258 "/>
<path fill="none" stroke="#56d8c9" stroke-width="2" stroke-dasharray="5,2" d="M286,-258C280,-258 274,-252 274,-246"/>
<polyline fill="none" stroke="#56d8c9" stroke-width="2" stroke-dasharray="5,2" points="274,-246 274,-234 "/>
<path fill="none" stroke="#56d8c9" stroke-width="2" stroke-dasharray="5,2" d="M274,-234C274,-228 280,-222 286,-222"/>
<polyline fill="none" stroke="#56d8c9" stroke-width="2" stroke-dasharray="5,2" points="286,-222 390,-222 "/>
<path fill="none" stroke="#56d8c9" stroke-width="2" stroke-dasharray="5,2" d="M390,-222C396,-222 402,-228 402,-234"/>
<polyline fill="none" stroke="#56d8c9" stroke-width="2" stroke-dasharray="5,2" points="402,-234 402,-246 "/>
<path fill="none" stroke="#56d8c9" stroke-width="2" stroke-dasharray="5,2" d="M402,-246C402,-252 396,-258 390,-258"/>
<text text-anchor="middle" x="338" y="-243" font-family="sans" font-size="10.00">pre_cutadapt</text>
<text text-anchor="middle" x="338" y="-232" font-family="sans" font-size="10.00">sample_label: APO&#45;1&#45;R</text>
</g>
<!-- 6&#45;&gt;5 -->
<g id="edge12" class="edge"><title>6&#45;&gt;5</title>
<path fill="none" stroke="grey" stroke-width="2" d="M338,-221.697C338,-213.983 338,-204.712 338,-196.112"/>
<polygon fill="grey" stroke="grey" points="341.5,-196.104 338,-186.104 334.5,-196.104 341.5,-196.104"/>
</g>
</g>
</svg>
