<?xml version="1.0" encoding="UTF-8" standalone="no"?>
<!DOCTYPE svg PUBLIC "-//W3C//DTD SVG 1.1//EN"
 "http://www.w3.org/Graphics/SVG/1.1/DTD/svg11.dtd">
<!-- Generated by graphviz version 2.44.0 (0)
 -->
<!-- Title: snakemake_dag Pages: 1 -->
<svg width="786pt" height="337pt"
 viewBox="0.00 0.00 786.00 337.00" xmlns="http://www.w3.org/2000/svg" xmlns:xlink="http://www.w3.org/1999/xlink">
<g id="graph0" class="graph" transform="scale(1 1) rotate(0) translate(4 333)">
<title>snakemake_dag</title>
<polygon fill="white" stroke="transparent" points="-4,4 -4,-333 782,-333 782,4 -4,4"/>
<!-- 0 -->
<g id="node1" class="node">
<title>0</title>
<path fill="none" stroke="#afd856" stroke-width="2" d="M433,-41C433,-41 322,-41 322,-41 316,-41 310,-35 310,-29 310,-29 310,-12 310,-12 310,-6 316,0 322,0 322,0 433,0 433,0 439,0 445,-6 445,-12 445,-12 445,-29 445,-29 445,-35 439,-41 433,-41"/>
<text text-anchor="middle" x="377.5" y="-29" font-family="sans" font-size="10.00">rip_call_enriched_RIP</text>
<text text-anchor="middle" x="377.5" y="-18" font-family="sans" font-size="10.00">in_sample_label: IN1</text>
<text text-anchor="middle" x="377.5" y="-7" font-family="sans" font-size="10.00">ip_sample_label: Mono1</text>
</g>
<!-- 1 -->
<g id="node2" class="node">
<title>1</title>
<path fill="none" stroke="#56d86b" stroke-width="2" d="M409.5,-185C409.5,-185 345.5,-185 345.5,-185 339.5,-185 333.5,-179 333.5,-173 333.5,-173 333.5,-161 333.5,-161 333.5,-155 339.5,-149 345.5,-149 345.5,-149 409.5,-149 409.5,-149 415.5,-149 421.5,-155 421.5,-161 421.5,-161 421.5,-173 421.5,-173 421.5,-179 415.5,-185 409.5,-185"/>
<text text-anchor="middle" x="377.5" y="-164.5" font-family="sans" font-size="10.00">rip_get_counts</text>
</g>
<!-- 1&#45;&gt;0 -->
<g id="edge1" class="edge">
<title>1&#45;&gt;0</title>
<path fill="none" stroke="grey" stroke-width="2" d="M366.87,-148.56C361.4,-138.54 355.3,-125.51 352.5,-113 349,-97.39 349.14,-92.64 352.5,-77 354.45,-67.92 358.01,-58.53 361.84,-50.11"/>
<polygon fill="grey" stroke="grey" stroke-width="2" points="365,-51.62 366.22,-41.09 358.7,-48.57 365,-51.62"/>
</g>
<!-- 14 -->
<g id="node15" class="node">
<title>14</title>
<path fill="none" stroke="#56d87b" stroke-width="2" d="M471.5,-113C471.5,-113 373.5,-113 373.5,-113 367.5,-113 361.5,-107 361.5,-101 361.5,-101 361.5,-89 361.5,-89 361.5,-83 367.5,-77 373.5,-77 373.5,-77 471.5,-77 471.5,-77 477.5,-77 483.5,-83 483.5,-89 483.5,-89 483.5,-101 483.5,-101 483.5,-107 477.5,-113 471.5,-113"/>
<text text-anchor="middle" x="422.5" y="-92.5" font-family="sans" font-size="10.00">rip_fit_overdispersion</text>
</g>
<!-- 1&#45;&gt;14 -->
<g id="edge15" class="edge">
<title>1&#45;&gt;14</title>
<path fill="none" stroke="grey" stroke-width="2" d="M388.62,-148.7C393.86,-140.56 400.2,-130.69 405.98,-121.7"/>
<polygon fill="grey" stroke="grey" stroke-width="2" points="409.04,-123.41 411.5,-113.1 403.15,-119.62 409.04,-123.41"/>
</g>
<!-- 2 -->
<g id="node3" class="node">
<title>2</title>
<path fill="none" stroke="#5673d8" stroke-width="2" d="M99,-257C99,-257 12,-257 12,-257 6,-257 0,-251 0,-245 0,-245 0,-233 0,-233 0,-227 6,-221 12,-221 12,-221 99,-221 99,-221 105,-221 111,-227 111,-233 111,-233 111,-245 111,-245 111,-251 105,-257 99,-257"/>
<text text-anchor="middle" x="55.5" y="-236.5" font-family="sans" font-size="10.00">ciri_run_ciri_RNASE</text>
</g>
<!-- 2&#45;&gt;1 -->
<g id="edge3" class="edge">
<title>2&#45;&gt;1</title>
<path fill="none" stroke="grey" stroke-width="2" d="M111.12,-223.25C114.29,-222.47 117.43,-221.72 120.5,-221 190.16,-204.72 271.06,-188.47 323.2,-178.34"/>
<polygon fill="grey" stroke="grey" stroke-width="2" points="324.08,-181.73 333.23,-176.4 322.75,-174.86 324.08,-181.73"/>
</g>
<!-- 3 -->
<g id="node4" class="node">
<title>3</title>
<path fill="none" stroke="#d89c56" stroke-width="2" stroke-dasharray="5,2" d="M95.5,-329C95.5,-329 15.5,-329 15.5,-329 9.5,-329 3.5,-323 3.5,-317 3.5,-317 3.5,-305 3.5,-305 3.5,-299 9.5,-293 15.5,-293 15.5,-293 95.5,-293 95.5,-293 101.5,-293 107.5,-299 107.5,-305 107.5,-305 107.5,-317 107.5,-317 107.5,-323 101.5,-329 95.5,-329"/>
<text text-anchor="middle" x="55.5" y="-314" font-family="sans" font-size="10.00">pre_trim_adapter</text>
<text text-anchor="middle" x="55.5" y="-303" font-family="sans" font-size="10.00">sample_label: IN1</text>
</g>
<!-- 3&#45;&gt;2 -->
<g id="edge9" class="edge">
<title>3&#45;&gt;2</title>
<path fill="none" stroke="grey" stroke-width="2" d="M55.5,-292.7C55.5,-284.98 55.5,-275.71 55.5,-267.11"/>
<polygon fill="grey" stroke="grey" stroke-width="2" points="59,-267.1 55.5,-257.1 52,-267.1 59,-267.1"/>
</g>
<!-- 4 -->
<g id="node5" class="node">
<title>4</title>
<path fill="none" stroke="#5673d8" stroke-width="2" d="M228,-257C228,-257 141,-257 141,-257 135,-257 129,-251 129,-245 129,-245 129,-233 129,-233 129,-227 135,-221 141,-221 141,-221 228,-221 228,-221 234,-221 240,-227 240,-233 240,-233 240,-245 240,-245 240,-251 234,-257 228,-257"/>
<text text-anchor="middle" x="184.5" y="-236.5" font-family="sans" font-size="10.00">ciri_run_ciri_RNASE</text>
</g>
<!-- 4&#45;&gt;1 -->
<g id="edge4" class="edge">
<title>4&#45;&gt;1</title>
<path fill="none" stroke="grey" stroke-width="2" d="M231.71,-220.88C259.59,-210.77 294.96,-197.94 323.88,-187.45"/>
<polygon fill="grey" stroke="grey" stroke-width="2" points="325.21,-190.69 333.42,-183.99 322.83,-184.11 325.21,-190.69"/>
</g>
<!-- 5 -->
<g id="node6" class="node">
<title>5</title>
<path fill="none" stroke="#d89c56" stroke-width="2" stroke-dasharray="5,2" d="M221.5,-329C221.5,-329 141.5,-329 141.5,-329 135.5,-329 129.5,-323 129.5,-317 129.5,-317 129.5,-305 129.5,-305 129.5,-299 135.5,-293 141.5,-293 141.5,-293 221.5,-293 221.5,-293 227.5,-293 233.5,-299 233.5,-305 233.5,-305 233.5,-317 233.5,-317 233.5,-323 227.5,-329 221.5,-329"/>
<text text-anchor="middle" x="181.5" y="-314" font-family="sans" font-size="10.00">pre_trim_adapter</text>
<text text-anchor="middle" x="181.5" y="-303" font-family="sans" font-size="10.00">sample_label: IN2</text>
</g>
<!-- 5&#45;&gt;4 -->
<g id="edge10" class="edge">
<title>5&#45;&gt;4</title>
<path fill="none" stroke="grey" stroke-width="2" d="M182.24,-292.7C182.57,-284.98 182.97,-275.71 183.34,-267.11"/>
<polygon fill="grey" stroke="grey" stroke-width="2" points="186.84,-267.25 183.77,-257.1 179.84,-266.95 186.84,-267.25"/>
</g>
<!-- 6 -->
<g id="node7" class="node">
<title>6</title>
<path fill="none" stroke="#5673d8" stroke-width="2" d="M357,-257C357,-257 270,-257 270,-257 264,-257 258,-251 258,-245 258,-245 258,-233 258,-233 258,-227 264,-221 270,-221 270,-221 357,-221 357,-221 363,-221 369,-227 369,-233 369,-233 369,-245 369,-245 369,-251 363,-257 357,-257"/>
<text text-anchor="middle" x="313.5" y="-236.5" font-family="sans" font-size="10.00">ciri_run_ciri_RNASE</text>
</g>
<!-- 6&#45;&gt;1 -->
<g id="edge5" class="edge">
<title>6&#45;&gt;1</title>
<path fill="none" stroke="grey" stroke-width="2" d="M329.32,-220.7C337.07,-212.22 346.54,-201.86 355.02,-192.58"/>
<polygon fill="grey" stroke="grey" stroke-width="2" points="357.7,-194.85 361.86,-185.1 352.53,-190.12 357.7,-194.85"/>
</g>
<!-- 7 -->
<g id="node8" class="node">
<title>7</title>
<path fill="none" stroke="#d89c56" stroke-width="2" stroke-dasharray="5,2" d="M355,-329C355,-329 264,-329 264,-329 258,-329 252,-323 252,-317 252,-317 252,-305 252,-305 252,-299 258,-293 264,-293 264,-293 355,-293 355,-293 361,-293 367,-299 367,-305 367,-305 367,-317 367,-317 367,-323 361,-329 355,-329"/>
<text text-anchor="middle" x="309.5" y="-314" font-family="sans" font-size="10.00">pre_trim_adapter</text>
<text text-anchor="middle" x="309.5" y="-303" font-family="sans" font-size="10.00">sample_label: Poly1</text>
</g>
<!-- 7&#45;&gt;6 -->
<g id="edge11" class="edge">
<title>7&#45;&gt;6</title>
<path fill="none" stroke="grey" stroke-width="2" d="M310.49,-292.7C310.93,-284.98 311.46,-275.71 311.95,-267.11"/>
<polygon fill="grey" stroke="grey" stroke-width="2" points="315.45,-267.29 312.52,-257.1 308.46,-266.89 315.45,-267.29"/>
</g>
<!-- 8 -->
<g id="node9" class="node">
<title>8</title>
<path fill="none" stroke="#5673d8" stroke-width="2" d="M486,-257C486,-257 399,-257 399,-257 393,-257 387,-251 387,-245 387,-245 387,-233 387,-233 387,-227 393,-221 399,-221 399,-221 486,-221 486,-221 492,-221 498,-227 498,-233 498,-233 498,-245 498,-245 498,-251 492,-257 486,-257"/>
<text text-anchor="middle" x="442.5" y="-236.5" font-family="sans" font-size="10.00">ciri_run_ciri_RNASE</text>
</g>
<!-- 8&#45;&gt;1 -->
<g id="edge6" class="edge">
<title>8&#45;&gt;1</title>
<path fill="none" stroke="grey" stroke-width="2" d="M426.43,-220.7C418.56,-212.22 408.94,-201.86 400.33,-192.58"/>
<polygon fill="grey" stroke="grey" stroke-width="2" points="402.75,-190.05 393.38,-185.1 397.62,-194.81 402.75,-190.05"/>
</g>
<!-- 9 -->
<g id="node10" class="node">
<title>9</title>
<path fill="none" stroke="#d89c56" stroke-width="2" stroke-dasharray="5,2" d="M488,-329C488,-329 397,-329 397,-329 391,-329 385,-323 385,-317 385,-317 385,-305 385,-305 385,-299 391,-293 397,-293 397,-293 488,-293 488,-293 494,-293 500,-299 500,-305 500,-305 500,-317 500,-317 500,-323 494,-329 488,-329"/>
<text text-anchor="middle" x="442.5" y="-314" font-family="sans" font-size="10.00">pre_trim_adapter</text>
<text text-anchor="middle" x="442.5" y="-303" font-family="sans" font-size="10.00">sample_label: Poly2</text>
</g>
<!-- 9&#45;&gt;8 -->
<g id="edge12" class="edge">
<title>9&#45;&gt;8</title>
<path fill="none" stroke="grey" stroke-width="2" d="M442.5,-292.7C442.5,-284.98 442.5,-275.71 442.5,-267.11"/>
<polygon fill="grey" stroke="grey" stroke-width="2" points="446,-267.1 442.5,-257.1 439,-267.1 446,-267.1"/>
</g>
<!-- 10 -->
<g id="node11" class="node">
<title>10</title>
<path fill="none" stroke="#5673d8" stroke-width="2" d="M618,-257C618,-257 531,-257 531,-257 525,-257 519,-251 519,-245 519,-245 519,-233 519,-233 519,-227 525,-221 531,-221 531,-221 618,-221 618,-221 624,-221 630,-227 630,-233 630,-233 630,-245 630,-245 630,-251 624,-257 618,-257"/>
<text text-anchor="middle" x="574.5" y="-236.5" font-family="sans" font-size="10.00">ciri_run_ciri_RNASE</text>
</g>
<!-- 10&#45;&gt;1 -->
<g id="edge7" class="edge">
<title>10&#45;&gt;1</title>
<path fill="none" stroke="grey" stroke-width="2" d="M526.56,-220.97C497.81,-210.75 461.17,-197.73 431.41,-187.16"/>
<polygon fill="grey" stroke="grey" stroke-width="2" points="432.2,-183.72 421.6,-183.67 429.85,-190.32 432.2,-183.72"/>
</g>
<!-- 11 -->
<g id="node12" class="node">
<title>11</title>
<path fill="none" stroke="#d89c56" stroke-width="2" stroke-dasharray="5,2" d="M627,-329C627,-329 530,-329 530,-329 524,-329 518,-323 518,-317 518,-317 518,-305 518,-305 518,-299 524,-293 530,-293 530,-293 627,-293 627,-293 633,-293 639,-299 639,-305 639,-305 639,-317 639,-317 639,-323 633,-329 627,-329"/>
<text text-anchor="middle" x="578.5" y="-314" font-family="sans" font-size="10.00">pre_trim_adapter</text>
<text text-anchor="middle" x="578.5" y="-303" font-family="sans" font-size="10.00">sample_label: Mono1</text>
</g>
<!-- 11&#45;&gt;10 -->
<g id="edge13" class="edge">
<title>11&#45;&gt;10</title>
<path fill="none" stroke="grey" stroke-width="2" d="M577.51,-292.7C577.07,-284.98 576.54,-275.71 576.05,-267.11"/>
<polygon fill="grey" stroke="grey" stroke-width="2" points="579.54,-266.89 575.48,-257.1 572.55,-267.29 579.54,-266.89"/>
</g>
<!-- 12 -->
<g id="node13" class="node">
<title>12</title>
<path fill="none" stroke="#5673d8" stroke-width="2" d="M754,-257C754,-257 667,-257 667,-257 661,-257 655,-251 655,-245 655,-245 655,-233 655,-233 655,-227 661,-221 667,-221 667,-221 754,-221 754,-221 760,-221 766,-227 766,-233 766,-233 766,-245 766,-245 766,-251 760,-257 754,-257"/>
<text text-anchor="middle" x="710.5" y="-236.5" font-family="sans" font-size="10.00">ciri_run_ciri_RNASE</text>
</g>
<!-- 12&#45;&gt;1 -->
<g id="edge8" class="edge">
<title>12&#45;&gt;1</title>
<path fill="none" stroke="grey" stroke-width="2" d="M654.73,-224.45C649.59,-223.26 644.45,-222.09 639.5,-221 567.77,-205.16 484.57,-188.65 431.51,-178.35"/>
<polygon fill="grey" stroke="grey" stroke-width="2" points="432.12,-174.9 421.64,-176.43 430.79,-181.77 432.12,-174.9"/>
</g>
<!-- 13 -->
<g id="node14" class="node">
<title>13</title>
<path fill="none" stroke="#d89c56" stroke-width="2" stroke-dasharray="5,2" d="M766,-329C766,-329 669,-329 669,-329 663,-329 657,-323 657,-317 657,-317 657,-305 657,-305 657,-299 663,-293 669,-293 669,-293 766,-293 766,-293 772,-293 778,-299 778,-305 778,-305 778,-317 778,-317 778,-323 772,-329 766,-329"/>
<text text-anchor="middle" x="717.5" y="-314" font-family="sans" font-size="10.00">pre_trim_adapter</text>
<text text-anchor="middle" x="717.5" y="-303" font-family="sans" font-size="10.00">sample_label: Mono2</text>
</g>
<!-- 13&#45;&gt;12 -->
<g id="edge14" class="edge">
<title>13&#45;&gt;12</title>
<path fill="none" stroke="grey" stroke-width="2" d="M715.77,-292.7C715,-284.98 714.07,-275.71 713.21,-267.11"/>
<polygon fill="grey" stroke="grey" stroke-width="2" points="716.69,-266.71 712.21,-257.1 709.72,-267.4 716.69,-266.71"/>
</g>
<!-- 14&#45;&gt;0 -->
<g id="edge2" class="edge">
<title>14&#45;&gt;0</title>
<path fill="none" stroke="grey" stroke-width="2" d="M411.84,-76.82C406.85,-68.78 400.77,-58.99 395.12,-49.89"/>
<polygon fill="grey" stroke="grey" stroke-width="2" points="397.93,-47.77 389.68,-41.12 391.98,-51.46 397.93,-47.77"/>
</g>
</g>
</svg>
