<?xml version="1.0" encoding="UTF-8" standalone="no"?>
<!DOCTYPE svg PUBLIC "-//W3C//DTD SVG 1.1//EN"
 "http://www.w3.org/Graphics/SVG/1.1/DTD/svg11.dtd">
<!-- Generated by graphviz version 2.44.0 (0)
 -->
<!-- Title: snakemake_dag Pages: 1 -->
<svg width="153pt" height="188pt"
 viewBox="0.00 0.00 153.00 188.00" xmlns="http://www.w3.org/2000/svg" xmlns:xlink="http://www.w3.org/1999/xlink">
<g id="graph0" class="graph" transform="scale(1 1) rotate(0) translate(4 184)">
<title>snakemake_dag</title>
<polygon fill="white" stroke="transparent" points="-4,4 -4,-184 149,-184 149,4 -4,4"/>
<!-- 0 -->
<g id="node1" class="node">
<title>0</title>
<path fill="none" stroke="#d89c56" stroke-width="2" d="M109,-36C109,-36 36,-36 36,-36 30,-36 24,-30 24,-24 24,-24 24,-12 24,-12 24,-6 30,0 36,0 36,0 109,0 109,0 115,0 121,-6 121,-12 121,-12 121,-24 121,-24 121,-30 115,-36 109,-36"/>
<text text-anchor="middle" x="72.5" y="-15.5" font-family="sans" font-size="10.00">pre_index_bams</text>
</g>
<!-- 1 -->
<g id="node2" class="node">
<title>1</title>
<path fill="none" stroke="#56d8b1" stroke-width="2" d="M107.5,-108C107.5,-108 37.5,-108 37.5,-108 31.5,-108 25.5,-102 25.5,-96 25.5,-96 25.5,-84 25.5,-84 25.5,-78 31.5,-72 37.5,-72 37.5,-72 107.5,-72 107.5,-72 113.5,-72 119.5,-78 119.5,-84 119.5,-84 119.5,-96 119.5,-96 119.5,-102 113.5,-108 107.5,-108"/>
<text text-anchor="middle" x="72.5" y="-87.5" font-family="sans" font-size="10.00">pre_align_reads</text>
</g>
<!-- 1&#45;&gt;0 -->
<g id="edge1" class="edge">
<title>1&#45;&gt;0</title>
<path fill="none" stroke="grey" stroke-width="2" d="M72.5,-71.7C72.5,-63.98 72.5,-54.71 72.5,-46.11"/>
<polygon fill="grey" stroke="grey" stroke-width="2" points="76,-46.1 72.5,-36.1 69,-46.1 76,-46.1"/>
</g>
<!-- 2 -->
<g id="node3" class="node">
<title>2</title>
<path fill="none" stroke="#97d856" stroke-width="2" stroke-dasharray="5,2" d="M133,-180C133,-180 12,-180 12,-180 6,-180 0,-174 0,-168 0,-168 0,-156 0,-156 0,-150 6,-144 12,-144 12,-144 133,-144 133,-144 139,-144 145,-150 145,-156 145,-156 145,-168 145,-168 145,-174 139,-180 133,-180"/>
<text text-anchor="middle" x="72.5" y="-165" font-family="sans" font-size="10.00">pre_trim_adapter</text>
<text text-anchor="middle" x="72.5" y="-154" font-family="sans" font-size="10.00">sample_label: HepG2EV_2</text>
</g>
<!-- 2&#45;&gt;1 -->
<g id="edge2" class="edge">
<title>2&#45;&gt;1</title>
<path fill="none" stroke="grey" stroke-width="2" d="M72.5,-143.7C72.5,-135.98 72.5,-126.71 72.5,-118.11"/>
<polygon fill="grey" stroke="grey" stroke-width="2" points="76,-118.1 72.5,-108.1 69,-118.1 76,-118.1"/>
</g>
</g>
</svg>
