<?xml version="1.0" encoding="UTF-8" standalone="no"?>
<!DOCTYPE svg PUBLIC "-//W3C//DTD SVG 1.1//EN"
 "http://www.w3.org/Graphics/SVG/1.1/DTD/svg11.dtd">
<!-- Generated by graphviz version 2.44.0 (0)
 -->
<!-- Title: snakemake_dag Pages: 1 -->
<svg width="921pt" height="841pt"
 viewBox="0.00 0.00 921.00 841.00" xmlns="http://www.w3.org/2000/svg" xmlns:xlink="http://www.w3.org/1999/xlink">
<g id="graph0" class="graph" transform="scale(1 1) rotate(0) translate(4 837)">
<title>snakemake_dag</title>
<polygon fill="white" stroke="transparent" points="-4,4 -4,-837 917,-837 917,4 -4,4"/>
<!-- 0 -->
<g id="node1" class="node">
<title>0</title>
<path fill="none" stroke="#5682d8" stroke-width="2" stroke-dasharray="5,2" d="M468,-41C468,-41 326,-41 326,-41 320,-41 314,-35 314,-29 314,-29 314,-12 314,-12 314,-6 320,0 326,0 326,0 468,0 468,0 474,0 480,-6 480,-12 480,-12 480,-29 480,-29 480,-35 474,-41 468,-41"/>
<text text-anchor="middle" x="397" y="-29" font-family="sans" font-size="10.00">edit_homer_expanded</text>
<text text-anchor="middle" x="397" y="-18" font-family="sans" font-size="10.00">ctrl_sample_label: APOBEC1_1</text>
<text text-anchor="middle" x="397" y="-7" font-family="sans" font-size="10.00">stamp_sample_label: YTHDF2</text>
</g>
<!-- 1 -->
<g id="node2" class="node">
<title>1</title>
<path fill="none" stroke="#bed856" stroke-width="2" stroke-dasharray="5,2" d="M291,-113C291,-113 195,-113 195,-113 189,-113 183,-107 183,-101 183,-101 183,-89 183,-89 183,-83 189,-77 195,-77 195,-77 291,-77 291,-77 297,-77 303,-83 303,-89 303,-89 303,-101 303,-101 303,-107 297,-113 291,-113"/>
<text text-anchor="middle" x="243" y="-92.5" font-family="sans" font-size="10.00">edit_significant_edits</text>
</g>
<!-- 1&#45;&gt;0 -->
<g id="edge1" class="edge">
<title>1&#45;&gt;0</title>
<path fill="none" stroke="grey" stroke-width="2" d="M279.5,-76.82C299.42,-67.44 324.4,-55.68 346.2,-45.42"/>
<polygon fill="grey" stroke="grey" stroke-width="2" points="347.77,-48.55 355.33,-41.12 344.79,-42.21 347.77,-48.55"/>
</g>
<!-- 2 -->
<g id="node3" class="node">
<title>2</title>
<path fill="none" stroke="#5692d8" stroke-width="2" stroke-dasharray="5,2" d="M203,-185C203,-185 53,-185 53,-185 47,-185 41,-179 41,-173 41,-173 41,-161 41,-161 41,-155 47,-149 53,-149 53,-149 203,-149 203,-149 209,-149 215,-155 215,-161 215,-161 215,-173 215,-173 215,-179 209,-185 203,-185"/>
<text text-anchor="middle" x="128" y="-164.5" font-family="sans" font-size="10.00">edit_pick_from_the_right_strand</text>
</g>
<!-- 2&#45;&gt;1 -->
<g id="edge3" class="edge">
<title>2&#45;&gt;1</title>
<path fill="none" stroke="grey" stroke-width="2" d="M156.13,-148.88C171.17,-139.72 189.87,-128.34 206.06,-118.48"/>
<polygon fill="grey" stroke="grey" stroke-width="2" points="208.04,-121.38 214.76,-113.19 204.4,-115.4 208.04,-121.38"/>
</g>
<!-- 3 -->
<g id="node4" class="node">
<title>3</title>
<path fill="none" stroke="#56d8c1" stroke-width="2" stroke-dasharray="5,2" d="M173.5,-257C173.5,-257 90.5,-257 90.5,-257 84.5,-257 78.5,-251 78.5,-245 78.5,-245 78.5,-233 78.5,-233 78.5,-227 84.5,-221 90.5,-221 90.5,-221 173.5,-221 173.5,-221 179.5,-221 185.5,-227 185.5,-233 185.5,-233 185.5,-245 185.5,-245 185.5,-251 179.5,-257 173.5,-257"/>
<text text-anchor="middle" x="132" y="-236.5" font-family="sans" font-size="10.00">edit_sailor_testing</text>
</g>
<!-- 3&#45;&gt;2 -->
<g id="edge7" class="edge">
<title>3&#45;&gt;2</title>
<path fill="none" stroke="grey" stroke-width="2" d="M131.01,-220.7C130.57,-212.98 130.04,-203.71 129.55,-195.11"/>
<polygon fill="grey" stroke="grey" stroke-width="2" points="133.04,-194.89 128.98,-185.1 126.05,-195.29 133.04,-194.89"/>
</g>
<!-- 4 -->
<g id="node5" class="node">
<title>4</title>
<path fill="none" stroke="#d87556" stroke-width="2" stroke-dasharray="5,2" d="M207,-329C207,-329 145,-329 145,-329 139,-329 133,-323 133,-317 133,-317 133,-305 133,-305 133,-299 139,-293 145,-293 145,-293 207,-293 207,-293 213,-293 219,-299 219,-305 219,-305 219,-317 219,-317 219,-323 213,-329 207,-329"/>
<text text-anchor="middle" x="176" y="-308.5" font-family="sans" font-size="10.00">edit_filter_snp</text>
</g>
<!-- 4&#45;&gt;3 -->
<g id="edge9" class="edge">
<title>4&#45;&gt;3</title>
<path fill="none" stroke="grey" stroke-width="2" d="M165.12,-292.7C160.01,-284.56 153.8,-274.69 148.16,-265.7"/>
<polygon fill="grey" stroke="grey" stroke-width="2" points="151.04,-263.71 142.75,-257.1 145.11,-267.43 151.04,-263.71"/>
</g>
<!-- 5 -->
<g id="node6" class="node">
<title>5</title>
<path fill="none" stroke="#d8d356" stroke-width="2" stroke-dasharray="5,2" d="M259.5,-401C259.5,-401 106.5,-401 106.5,-401 100.5,-401 94.5,-395 94.5,-389 94.5,-389 94.5,-377 94.5,-377 94.5,-371 100.5,-365 106.5,-365 106.5,-365 259.5,-365 259.5,-365 265.5,-365 271.5,-371 271.5,-377 271.5,-377 271.5,-389 271.5,-389 271.5,-395 265.5,-401 259.5,-401"/>
<text text-anchor="middle" x="183" y="-380.5" font-family="sans" font-size="10.00">edit_aggregate_pseudoreference</text>
</g>
<!-- 5&#45;&gt;4 -->
<g id="edge10" class="edge">
<title>5&#45;&gt;4</title>
<path fill="none" stroke="grey" stroke-width="2" d="M181.27,-364.7C180.5,-356.98 179.57,-347.71 178.71,-339.11"/>
<polygon fill="grey" stroke="grey" stroke-width="2" points="182.19,-338.71 177.71,-329.1 175.22,-339.4 182.19,-338.71"/>
</g>
<!-- 6 -->
<g id="node7" class="node">
<title>6</title>
<path fill="none" stroke="#61d856" stroke-width="2" stroke-dasharray="5,2" d="M235,-473C235,-473 137,-473 137,-473 131,-473 125,-467 125,-461 125,-461 125,-449 125,-449 125,-443 131,-437 137,-437 137,-437 235,-437 235,-437 241,-437 247,-443 247,-449 247,-449 247,-461 247,-461 247,-467 241,-473 235,-473"/>
<text text-anchor="middle" x="186" y="-458" font-family="sans" font-size="10.00">edit_make_edit_table</text>
<text text-anchor="middle" x="186" y="-447" font-family="sans" font-size="10.00">strand: pos</text>
</g>
<!-- 6&#45;&gt;5 -->
<g id="edge11" class="edge">
<title>6&#45;&gt;5</title>
<path fill="none" stroke="grey" stroke-width="2" d="M185.26,-436.7C184.93,-428.98 184.53,-419.71 184.16,-411.11"/>
<polygon fill="grey" stroke="grey" stroke-width="2" points="187.66,-410.95 183.73,-401.1 180.66,-411.25 187.66,-410.95"/>
</g>
<!-- 7 -->
<g id="node8" class="node">
<title>7</title>
<path fill="none" stroke="#d87d56" stroke-width="2" stroke-dasharray="5,2" d="M299.5,-545C299.5,-545 116.5,-545 116.5,-545 110.5,-545 104.5,-539 104.5,-533 104.5,-533 104.5,-521 104.5,-521 104.5,-515 110.5,-509 116.5,-509 116.5,-509 299.5,-509 299.5,-509 305.5,-509 311.5,-515 311.5,-521 311.5,-521 311.5,-533 311.5,-533 311.5,-539 305.5,-545 299.5,-545"/>
<text text-anchor="middle" x="208" y="-530" font-family="sans" font-size="10.00">edit_gzip_index_vcf</text>
<text text-anchor="middle" x="208" y="-519" font-family="sans" font-size="10.00">anything: output/edits/YTHDF2.dp4.pos</text>
</g>
<!-- 7&#45;&gt;6 -->
<g id="edge12" class="edge">
<title>7&#45;&gt;6</title>
<path fill="none" stroke="grey" stroke-width="2" d="M202.56,-508.7C200.11,-500.9 197.16,-491.51 194.43,-482.83"/>
<polygon fill="grey" stroke="grey" stroke-width="2" points="197.71,-481.59 191.38,-473.1 191.04,-483.69 197.71,-481.59"/>
</g>
<!-- 8 -->
<g id="node9" class="node">
<title>8</title>
<path fill="none" stroke="#56a9d8" stroke-width="2" stroke-dasharray="5,2" d="M206,-617C206,-617 122,-617 122,-617 116,-617 110,-611 110,-605 110,-605 110,-593 110,-593 110,-587 116,-581 122,-581 122,-581 206,-581 206,-581 212,-581 218,-587 218,-593 218,-593 218,-605 218,-605 218,-611 212,-617 206,-617"/>
<text text-anchor="middle" x="164" y="-596.5" font-family="sans" font-size="10.00">edit_filter_variants</text>
</g>
<!-- 8&#45;&gt;7 -->
<g id="edge15" class="edge">
<title>8&#45;&gt;7</title>
<path fill="none" stroke="grey" stroke-width="2" d="M174.88,-580.7C179.99,-572.56 186.2,-562.69 191.84,-553.7"/>
<polygon fill="grey" stroke="grey" stroke-width="2" points="194.89,-555.43 197.25,-545.1 188.96,-551.71 194.89,-555.43"/>
</g>
<!-- 9 -->
<g id="node10" class="node">
<title>9</title>
<path fill="none" stroke="#56d8a2" stroke-width="2" stroke-dasharray="5,2" d="M168.5,-689C168.5,-689 121.5,-689 121.5,-689 115.5,-689 109.5,-683 109.5,-677 109.5,-677 109.5,-665 109.5,-665 109.5,-659 115.5,-653 121.5,-653 121.5,-653 168.5,-653 168.5,-653 174.5,-653 180.5,-659 180.5,-665 180.5,-665 180.5,-677 180.5,-677 180.5,-683 174.5,-689 168.5,-689"/>
<text text-anchor="middle" x="145" y="-668.5" font-family="sans" font-size="10.00">edit_pileup</text>
</g>
<!-- 9&#45;&gt;8 -->
<g id="edge16" class="edge">
<title>9&#45;&gt;8</title>
<path fill="none" stroke="grey" stroke-width="2" d="M149.7,-652.7C151.81,-644.9 154.36,-635.51 156.72,-626.83"/>
<polygon fill="grey" stroke="grey" stroke-width="2" points="160.12,-627.67 159.36,-617.1 153.36,-625.84 160.12,-627.67"/>
</g>
<!-- 10 -->
<g id="node11" class="node">
<title>10</title>
<path fill="none" stroke="#d89c56" stroke-width="2" stroke-dasharray="5,2" d="M137.5,-761C137.5,-761 50.5,-761 50.5,-761 44.5,-761 38.5,-755 38.5,-749 38.5,-749 38.5,-737 38.5,-737 38.5,-731 44.5,-725 50.5,-725 50.5,-725 137.5,-725 137.5,-725 143.5,-725 149.5,-731 149.5,-737 149.5,-737 149.5,-749 149.5,-749 149.5,-755 143.5,-761 137.5,-761"/>
<text text-anchor="middle" x="94" y="-740.5" font-family="sans" font-size="10.00">ciri_run_ciri_RNASE</text>
</g>
<!-- 10&#45;&gt;1 -->
<g id="edge5" class="edge">
<title>10&#45;&gt;1</title>
<path fill="none" stroke="grey" stroke-width="2" d="M72.67,-724.73C44.94,-700.18 0,-652.33 0,-600 0,-600 0,-600 0,-238 0,-195.97 0.84,-177.21 32,-149 70.13,-114.47 127.41,-101.68 172.68,-97.27"/>
<polygon fill="grey" stroke="grey" stroke-width="2" points="173.06,-100.75 182.72,-96.41 172.46,-93.78 173.06,-100.75"/>
</g>
<!-- 10&#45;&gt;2 -->
<g id="edge8" class="edge">
<title>10&#45;&gt;2</title>
<path fill="none" stroke="grey" stroke-width="2" d="M82.4,-724.93C65.99,-699.09 38,-647.97 38,-600 38,-600 38,-600 38,-310 38,-268.11 45.8,-255.87 69,-221 76.21,-210.16 86.14,-200.1 95.8,-191.72"/>
<polygon fill="grey" stroke="grey" stroke-width="2" points="98.32,-194.18 103.78,-185.1 93.85,-188.79 98.32,-194.18"/>
</g>
<!-- 10&#45;&gt;6 -->
<g id="edge13" class="edge">
<title>10&#45;&gt;6</title>
<path fill="none" stroke="grey" stroke-width="2" d="M88.66,-724.72C77.13,-683.92 54.13,-579.75 95,-509 102.5,-496.01 114.55,-485.9 127.45,-478.16"/>
<polygon fill="grey" stroke="grey" stroke-width="2" points="129.41,-481.07 136.48,-473.18 126.03,-474.95 129.41,-481.07"/>
</g>
<!-- 10&#45;&gt;9 -->
<g id="edge17" class="edge">
<title>10&#45;&gt;9</title>
<path fill="none" stroke="grey" stroke-width="2" d="M106.61,-724.7C112.6,-716.47 119.88,-706.48 126.48,-697.42"/>
<polygon fill="grey" stroke="grey" stroke-width="2" points="129.48,-699.25 132.54,-689.1 123.82,-695.13 129.48,-699.25"/>
</g>
<!-- 12 -->
<g id="node13" class="node">
<title>12</title>
<path fill="none" stroke="#d8ac56" stroke-width="2" stroke-dasharray="5,2" d="M333,-617C333,-617 257,-617 257,-617 251,-617 245,-611 245,-605 245,-605 245,-593 245,-593 245,-587 251,-581 257,-581 257,-581 333,-581 333,-581 339,-581 345,-587 345,-593 345,-593 345,-605 345,-605 345,-611 339,-617 333,-617"/>
<text text-anchor="middle" x="295" y="-596.5" font-family="sans" font-size="10.00">edit_make_index</text>
</g>
<!-- 10&#45;&gt;12 -->
<g id="edge19" class="edge">
<title>10&#45;&gt;12</title>
<path fill="none" stroke="grey" stroke-width="2" d="M128.35,-724.86C146.83,-715.14 169.72,-702.29 189,-689 217.94,-669.04 248.43,-642.83 269.24,-624.03"/>
<polygon fill="grey" stroke="grey" stroke-width="2" points="271.68,-626.53 276.71,-617.21 266.96,-621.36 271.68,-626.53"/>
</g>
<!-- 14 -->
<g id="node15" class="node">
<title>14</title>
<path fill="none" stroke="#56c9d8" stroke-width="2" stroke-dasharray="5,2" d="M367.5,-257C367.5,-257 312.5,-257 312.5,-257 306.5,-257 300.5,-251 300.5,-245 300.5,-245 300.5,-233 300.5,-233 300.5,-227 306.5,-221 312.5,-221 312.5,-221 367.5,-221 367.5,-221 373.5,-221 379.5,-227 379.5,-233 379.5,-233 379.5,-245 379.5,-245 379.5,-251 373.5,-257 367.5,-257"/>
<text text-anchor="middle" x="340" y="-236.5" font-family="sans" font-size="10.00">ciri_index_fa</text>
</g>
<!-- 10&#45;&gt;14 -->
<g id="edge21" class="edge">
<title>10&#45;&gt;14</title>
<path fill="none" stroke="grey" stroke-width="2" d="M149.77,-738.59C232.48,-730.17 378,-701.02 378,-600 378,-600 378,-600 378,-382 378,-340.63 362.77,-294.72 351.59,-266.61"/>
<polygon fill="grey" stroke="grey" stroke-width="2" points="354.72,-265.02 347.69,-257.09 348.24,-267.67 354.72,-265.02"/>
</g>
<!-- 11 -->
<g id="node12" class="node">
<title>11</title>
<path fill="none" stroke="#56d8d8" stroke-width="2" stroke-dasharray="5,2" d="M145.5,-833C145.5,-833 42.5,-833 42.5,-833 36.5,-833 30.5,-827 30.5,-821 30.5,-821 30.5,-809 30.5,-809 30.5,-803 36.5,-797 42.5,-797 42.5,-797 145.5,-797 145.5,-797 151.5,-797 157.5,-803 157.5,-809 157.5,-809 157.5,-821 157.5,-821 157.5,-827 151.5,-833 145.5,-833"/>
<text text-anchor="middle" x="94" y="-818" font-family="sans" font-size="10.00">pre_trim_adapter</text>
<text text-anchor="middle" x="94" y="-807" font-family="sans" font-size="10.00">sample_label: YTHDF2</text>
</g>
<!-- 11&#45;&gt;10 -->
<g id="edge18" class="edge">
<title>11&#45;&gt;10</title>
<path fill="none" stroke="grey" stroke-width="2" d="M94,-796.7C94,-788.98 94,-779.71 94,-771.11"/>
<polygon fill="grey" stroke="grey" stroke-width="2" points="97.5,-771.1 94,-761.1 90.5,-771.1 97.5,-771.1"/>
</g>
<!-- 12&#45;&gt;6 -->
<g id="edge14" class="edge">
<title>12&#45;&gt;6</title>
<path fill="none" stroke="grey" stroke-width="2" d="M307.65,-580.9C320.02,-561.91 334.98,-531.03 320,-509 305.54,-487.73 281.07,-474.99 256.97,-467.37"/>
<polygon fill="grey" stroke="grey" stroke-width="2" points="257.64,-463.92 247.06,-464.5 255.69,-470.64 257.64,-463.92"/>
</g>
<!-- 13 -->
<g id="node14" class="node">
<title>13</title>
<path fill="none" stroke="#ced856" stroke-width="2" stroke-dasharray="5,2" d="M396.5,-185C396.5,-185 283.5,-185 283.5,-185 277.5,-185 271.5,-179 271.5,-173 271.5,-173 271.5,-161 271.5,-161 271.5,-155 277.5,-149 283.5,-149 283.5,-149 396.5,-149 396.5,-149 402.5,-149 408.5,-155 408.5,-161 408.5,-161 408.5,-173 408.5,-173 408.5,-179 402.5,-185 396.5,-185"/>
<text text-anchor="middle" x="340" y="-164.5" font-family="sans" font-size="10.00">edit_make_genome_size</text>
</g>
<!-- 13&#45;&gt;1 -->
<g id="edge4" class="edge">
<title>13&#45;&gt;1</title>
<path fill="none" stroke="grey" stroke-width="2" d="M316.02,-148.7C303.69,-139.8 288.48,-128.82 275.15,-119.2"/>
<polygon fill="grey" stroke="grey" stroke-width="2" points="276.86,-116.12 266.7,-113.1 272.76,-121.79 276.86,-116.12"/>
</g>
<!-- 14&#45;&gt;1 -->
<g id="edge6" class="edge">
<title>14&#45;&gt;1</title>
<path fill="none" stroke="grey" stroke-width="2" d="M303.44,-221C288.44,-212.26 272.23,-200.21 262,-185 249.71,-166.72 245.17,-141.96 243.58,-123.19"/>
<polygon fill="grey" stroke="grey" stroke-width="2" points="247.08,-122.96 242.97,-113.2 240.09,-123.39 247.08,-122.96"/>
</g>
<!-- 14&#45;&gt;13 -->
<g id="edge20" class="edge">
<title>14&#45;&gt;13</title>
<path fill="none" stroke="grey" stroke-width="2" d="M340,-220.7C340,-212.98 340,-203.71 340,-195.11"/>
<polygon fill="grey" stroke="grey" stroke-width="2" points="343.5,-195.1 340,-185.1 336.5,-195.1 343.5,-195.1"/>
</g>
<!-- 15 -->
<g id="node16" class="node">
<title>15</title>
<path fill="none" stroke="#bed856" stroke-width="2" stroke-dasharray="5,2" d="M600,-113C600,-113 504,-113 504,-113 498,-113 492,-107 492,-101 492,-101 492,-89 492,-89 492,-83 498,-77 504,-77 504,-77 600,-77 600,-77 606,-77 612,-83 612,-89 612,-89 612,-101 612,-101 612,-107 606,-113 600,-113"/>
<text text-anchor="middle" x="552" y="-92.5" font-family="sans" font-size="10.00">edit_significant_edits</text>
</g>
<!-- 15&#45;&gt;0 -->
<g id="edge2" class="edge">
<title>15&#45;&gt;0</title>
<path fill="none" stroke="grey" stroke-width="2" d="M515.27,-76.82C495.21,-67.44 470.07,-55.68 448.13,-45.42"/>
<polygon fill="grey" stroke="grey" stroke-width="2" points="449.49,-42.19 438.95,-41.12 446.52,-48.53 449.49,-42.19"/>
</g>
<!-- 16 -->
<g id="node17" class="node">
<title>16</title>
<path fill="none" stroke="#5692d8" stroke-width="2" stroke-dasharray="5,2" d="M627,-185C627,-185 477,-185 477,-185 471,-185 465,-179 465,-173 465,-173 465,-161 465,-161 465,-155 471,-149 477,-149 477,-149 627,-149 627,-149 633,-149 639,-155 639,-161 639,-161 639,-173 639,-173 639,-179 633,-185 627,-185"/>
<text text-anchor="middle" x="552" y="-164.5" font-family="sans" font-size="10.00">edit_pick_from_the_right_strand</text>
</g>
<!-- 16&#45;&gt;15 -->
<g id="edge22" class="edge">
<title>16&#45;&gt;15</title>
<path fill="none" stroke="grey" stroke-width="2" d="M552,-148.7C552,-140.98 552,-131.71 552,-123.11"/>
<polygon fill="grey" stroke="grey" stroke-width="2" points="555.5,-123.1 552,-113.1 548.5,-123.1 555.5,-123.1"/>
</g>
<!-- 17 -->
<g id="node18" class="node">
<title>17</title>
<path fill="none" stroke="#56d8c1" stroke-width="2" stroke-dasharray="5,2" d="M664.5,-257C664.5,-257 581.5,-257 581.5,-257 575.5,-257 569.5,-251 569.5,-245 569.5,-245 569.5,-233 569.5,-233 569.5,-227 575.5,-221 581.5,-221 581.5,-221 664.5,-221 664.5,-221 670.5,-221 676.5,-227 676.5,-233 676.5,-233 676.5,-245 676.5,-245 676.5,-251 670.5,-257 664.5,-257"/>
<text text-anchor="middle" x="623" y="-236.5" font-family="sans" font-size="10.00">edit_sailor_testing</text>
</g>
<!-- 17&#45;&gt;16 -->
<g id="edge26" class="edge">
<title>17&#45;&gt;16</title>
<path fill="none" stroke="grey" stroke-width="2" d="M605.45,-220.7C596.77,-212.14 586.14,-201.66 576.65,-192.3"/>
<polygon fill="grey" stroke="grey" stroke-width="2" points="578.93,-189.63 569.35,-185.1 574.01,-194.62 578.93,-189.63"/>
</g>
<!-- 18 -->
<g id="node19" class="node">
<title>18</title>
<path fill="none" stroke="#d87556" stroke-width="2" stroke-dasharray="5,2" d="M669,-329C669,-329 607,-329 607,-329 601,-329 595,-323 595,-317 595,-317 595,-305 595,-305 595,-299 601,-293 607,-293 607,-293 669,-293 669,-293 675,-293 681,-299 681,-305 681,-305 681,-317 681,-317 681,-323 675,-329 669,-329"/>
<text text-anchor="middle" x="638" y="-308.5" font-family="sans" font-size="10.00">edit_filter_snp</text>
</g>
<!-- 18&#45;&gt;17 -->
<g id="edge28" class="edge">
<title>18&#45;&gt;17</title>
<path fill="none" stroke="grey" stroke-width="2" d="M634.29,-292.7C632.64,-284.98 630.65,-275.71 628.81,-267.11"/>
<polygon fill="grey" stroke="grey" stroke-width="2" points="632.18,-266.15 626.67,-257.1 625.34,-267.62 632.18,-266.15"/>
</g>
<!-- 19 -->
<g id="node20" class="node">
<title>19</title>
<path fill="none" stroke="#d8d356" stroke-width="2" stroke-dasharray="5,2" d="M718.5,-401C718.5,-401 565.5,-401 565.5,-401 559.5,-401 553.5,-395 553.5,-389 553.5,-389 553.5,-377 553.5,-377 553.5,-371 559.5,-365 565.5,-365 565.5,-365 718.5,-365 718.5,-365 724.5,-365 730.5,-371 730.5,-377 730.5,-377 730.5,-389 730.5,-389 730.5,-395 724.5,-401 718.5,-401"/>
<text text-anchor="middle" x="642" y="-380.5" font-family="sans" font-size="10.00">edit_aggregate_pseudoreference</text>
</g>
<!-- 19&#45;&gt;18 -->
<g id="edge29" class="edge">
<title>19&#45;&gt;18</title>
<path fill="none" stroke="grey" stroke-width="2" d="M641.01,-364.7C640.57,-356.98 640.04,-347.71 639.55,-339.11"/>
<polygon fill="grey" stroke="grey" stroke-width="2" points="643.04,-338.89 638.98,-329.1 636.05,-339.29 643.04,-338.89"/>
</g>
<!-- 20 -->
<g id="node21" class="node">
<title>20</title>
<path fill="none" stroke="#61d856" stroke-width="2" stroke-dasharray="5,2" d="M699,-473C699,-473 601,-473 601,-473 595,-473 589,-467 589,-461 589,-461 589,-449 589,-449 589,-443 595,-437 601,-437 601,-437 699,-437 699,-437 705,-437 711,-443 711,-449 711,-449 711,-461 711,-461 711,-467 705,-473 699,-473"/>
<text text-anchor="middle" x="650" y="-458" font-family="sans" font-size="10.00">edit_make_edit_table</text>
<text text-anchor="middle" x="650" y="-447" font-family="sans" font-size="10.00">strand: pos</text>
</g>
<!-- 20&#45;&gt;19 -->
<g id="edge30" class="edge">
<title>20&#45;&gt;19</title>
<path fill="none" stroke="grey" stroke-width="2" d="M648.02,-436.7C647.14,-428.98 646.08,-419.71 645.1,-411.11"/>
<polygon fill="grey" stroke="grey" stroke-width="2" points="648.57,-410.64 643.95,-401.1 641.61,-411.44 648.57,-410.64"/>
</g>
<!-- 21 -->
<g id="node22" class="node">
<title>21</title>
<path fill="none" stroke="#d87d56" stroke-width="2" stroke-dasharray="5,2" d="M754.5,-545C754.5,-545 553.5,-545 553.5,-545 547.5,-545 541.5,-539 541.5,-533 541.5,-533 541.5,-521 541.5,-521 541.5,-515 547.5,-509 553.5,-509 553.5,-509 754.5,-509 754.5,-509 760.5,-509 766.5,-515 766.5,-521 766.5,-521 766.5,-533 766.5,-533 766.5,-539 760.5,-545 754.5,-545"/>
<text text-anchor="middle" x="654" y="-530" font-family="sans" font-size="10.00">edit_gzip_index_vcf</text>
<text text-anchor="middle" x="654" y="-519" font-family="sans" font-size="10.00">anything: output/edits/APOBEC1_1.dp4.pos</text>
</g>
<!-- 21&#45;&gt;20 -->
<g id="edge31" class="edge">
<title>21&#45;&gt;20</title>
<path fill="none" stroke="grey" stroke-width="2" d="M653.01,-508.7C652.57,-500.98 652.04,-491.71 651.55,-483.11"/>
<polygon fill="grey" stroke="grey" stroke-width="2" points="655.04,-482.89 650.98,-473.1 648.05,-483.29 655.04,-482.89"/>
</g>
<!-- 22 -->
<g id="node23" class="node">
<title>22</title>
<path fill="none" stroke="#56a9d8" stroke-width="2" stroke-dasharray="5,2" d="M666,-617C666,-617 582,-617 582,-617 576,-617 570,-611 570,-605 570,-605 570,-593 570,-593 570,-587 576,-581 582,-581 582,-581 666,-581 666,-581 672,-581 678,-587 678,-593 678,-593 678,-605 678,-605 678,-611 672,-617 666,-617"/>
<text text-anchor="middle" x="624" y="-596.5" font-family="sans" font-size="10.00">edit_filter_variants</text>
</g>
<!-- 22&#45;&gt;21 -->
<g id="edge34" class="edge">
<title>22&#45;&gt;21</title>
<path fill="none" stroke="grey" stroke-width="2" d="M631.42,-580.7C634.79,-572.81 638.87,-563.3 642.62,-554.55"/>
<polygon fill="grey" stroke="grey" stroke-width="2" points="645.95,-555.67 646.67,-545.1 639.51,-552.92 645.95,-555.67"/>
</g>
<!-- 23 -->
<g id="node24" class="node">
<title>23</title>
<path fill="none" stroke="#56d8a2" stroke-width="2" stroke-dasharray="5,2" d="M638.5,-689C638.5,-689 591.5,-689 591.5,-689 585.5,-689 579.5,-683 579.5,-677 579.5,-677 579.5,-665 579.5,-665 579.5,-659 585.5,-653 591.5,-653 591.5,-653 638.5,-653 638.5,-653 644.5,-653 650.5,-659 650.5,-665 650.5,-665 650.5,-677 650.5,-677 650.5,-683 644.5,-689 638.5,-689"/>
<text text-anchor="middle" x="615" y="-668.5" font-family="sans" font-size="10.00">edit_pileup</text>
</g>
<!-- 23&#45;&gt;22 -->
<g id="edge35" class="edge">
<title>23&#45;&gt;22</title>
<path fill="none" stroke="grey" stroke-width="2" d="M617.22,-652.7C618.22,-644.98 619.41,-635.71 620.51,-627.11"/>
<polygon fill="grey" stroke="grey" stroke-width="2" points="624,-627.47 621.8,-617.1 617.05,-626.58 624,-627.47"/>
</g>
<!-- 24 -->
<g id="node25" class="node">
<title>24</title>
<path fill="none" stroke="#d89c56" stroke-width="2" stroke-dasharray="5,2" d="M607.5,-761C607.5,-761 520.5,-761 520.5,-761 514.5,-761 508.5,-755 508.5,-749 508.5,-749 508.5,-737 508.5,-737 508.5,-731 514.5,-725 520.5,-725 520.5,-725 607.5,-725 607.5,-725 613.5,-725 619.5,-731 619.5,-737 619.5,-737 619.5,-749 619.5,-749 619.5,-755 613.5,-761 607.5,-761"/>
<text text-anchor="middle" x="564" y="-740.5" font-family="sans" font-size="10.00">ciri_run_ciri_RNASE</text>
</g>
<!-- 24&#45;&gt;15 -->
<g id="edge24" class="edge">
<title>24&#45;&gt;15</title>
<path fill="none" stroke="grey" stroke-width="2" d="M532.61,-724.94C495,-701.95 437,-657.22 437,-600 437,-600 437,-600 437,-238 437,-197.55 431.9,-181.48 456,-149 465.77,-135.83 479.83,-125.53 494.19,-117.65"/>
<polygon fill="grey" stroke="grey" stroke-width="2" points="495.84,-120.73 503.14,-113.05 492.64,-114.51 495.84,-120.73"/>
</g>
<!-- 24&#45;&gt;16 -->
<g id="edge27" class="edge">
<title>24&#45;&gt;16</title>
<path fill="none" stroke="grey" stroke-width="2" d="M544.25,-724.91C518.03,-700.21 475,-651.79 475,-600 475,-600 475,-600 475,-310 475,-264.51 505.92,-219.65 528.57,-192.89"/>
<polygon fill="grey" stroke="grey" stroke-width="2" points="531.36,-195.02 535.29,-185.19 526.08,-190.42 531.36,-195.02"/>
</g>
<!-- 24&#45;&gt;20 -->
<g id="edge32" class="edge">
<title>24&#45;&gt;20</title>
<path fill="none" stroke="grey" stroke-width="2" d="M554.51,-724.82C533.25,-683.8 487.08,-578.42 532,-509 543.01,-491.98 560.92,-480.38 579.5,-472.48"/>
<polygon fill="grey" stroke="grey" stroke-width="2" points="580.91,-475.69 588.95,-468.79 578.36,-469.17 580.91,-475.69"/>
</g>
<!-- 24&#45;&gt;23 -->
<g id="edge36" class="edge">
<title>24&#45;&gt;23</title>
<path fill="none" stroke="grey" stroke-width="2" d="M576.61,-724.7C582.6,-716.47 589.88,-706.48 596.48,-697.42"/>
<polygon fill="grey" stroke="grey" stroke-width="2" points="599.48,-699.25 602.54,-689.1 593.82,-695.13 599.48,-699.25"/>
</g>
<!-- 26 -->
<g id="node27" class="node">
<title>26</title>
<path fill="none" stroke="#d8ac56" stroke-width="2" stroke-dasharray="5,2" d="M873,-545C873,-545 797,-545 797,-545 791,-545 785,-539 785,-533 785,-533 785,-521 785,-521 785,-515 791,-509 797,-509 797,-509 873,-509 873,-509 879,-509 885,-515 885,-521 885,-521 885,-533 885,-533 885,-539 879,-545 873,-545"/>
<text text-anchor="middle" x="835" y="-524.5" font-family="sans" font-size="10.00">edit_make_index</text>
</g>
<!-- 24&#45;&gt;26 -->
<g id="edge38" class="edge">
<title>24&#45;&gt;26</title>
<path fill="none" stroke="grey" stroke-width="2" d="M599.88,-724.79C618.47,-715.25 641.15,-702.57 660,-689 718.93,-646.56 779.5,-586.43 811.63,-552.96"/>
<polygon fill="grey" stroke="grey" stroke-width="2" points="814.43,-555.1 818.79,-545.45 809.36,-550.27 814.43,-555.1"/>
</g>
<!-- 28 -->
<g id="node29" class="node">
<title>28</title>
<path fill="none" stroke="#56c9d8" stroke-width="2" stroke-dasharray="5,2" d="M791.5,-257C791.5,-257 736.5,-257 736.5,-257 730.5,-257 724.5,-251 724.5,-245 724.5,-245 724.5,-233 724.5,-233 724.5,-227 730.5,-221 736.5,-221 736.5,-221 791.5,-221 791.5,-221 797.5,-221 803.5,-227 803.5,-233 803.5,-233 803.5,-245 803.5,-245 803.5,-251 797.5,-257 791.5,-257"/>
<text text-anchor="middle" x="764" y="-236.5" font-family="sans" font-size="10.00">ciri_index_fa</text>
</g>
<!-- 24&#45;&gt;28 -->
<g id="edge40" class="edge">
<title>24&#45;&gt;28</title>
<path fill="none" stroke="grey" stroke-width="2" d="M619.69,-731.35C718.22,-710.89 913,-662.55 913,-600 913,-600 913,-600 913,-382 913,-325.45 856.07,-284.56 812.59,-261.57"/>
<polygon fill="grey" stroke="grey" stroke-width="2" points="814.03,-258.38 803.54,-256.94 810.84,-264.61 814.03,-258.38"/>
</g>
<!-- 25 -->
<g id="node26" class="node">
<title>25</title>
<path fill="none" stroke="#56d8d8" stroke-width="2" stroke-dasharray="5,2" d="M624.5,-833C624.5,-833 503.5,-833 503.5,-833 497.5,-833 491.5,-827 491.5,-821 491.5,-821 491.5,-809 491.5,-809 491.5,-803 497.5,-797 503.5,-797 503.5,-797 624.5,-797 624.5,-797 630.5,-797 636.5,-803 636.5,-809 636.5,-809 636.5,-821 636.5,-821 636.5,-827 630.5,-833 624.5,-833"/>
<text text-anchor="middle" x="564" y="-818" font-family="sans" font-size="10.00">pre_trim_adapter</text>
<text text-anchor="middle" x="564" y="-807" font-family="sans" font-size="10.00">sample_label: APOBEC1_1</text>
</g>
<!-- 25&#45;&gt;24 -->
<g id="edge37" class="edge">
<title>25&#45;&gt;24</title>
<path fill="none" stroke="grey" stroke-width="2" d="M564,-796.7C564,-788.98 564,-779.71 564,-771.11"/>
<polygon fill="grey" stroke="grey" stroke-width="2" points="567.5,-771.1 564,-761.1 560.5,-771.1 567.5,-771.1"/>
</g>
<!-- 26&#45;&gt;20 -->
<g id="edge33" class="edge">
<title>26&#45;&gt;20</title>
<path fill="none" stroke="grey" stroke-width="2" d="M789.74,-508.88C764,-499.14 731.59,-486.87 704.46,-476.61"/>
<polygon fill="grey" stroke="grey" stroke-width="2" points="705.7,-473.33 695.11,-473.07 703.22,-479.88 705.7,-473.33"/>
</g>
<!-- 27 -->
<g id="node28" class="node">
<title>27</title>
<path fill="none" stroke="#ced856" stroke-width="2" stroke-dasharray="5,2" d="M820.5,-185C820.5,-185 707.5,-185 707.5,-185 701.5,-185 695.5,-179 695.5,-173 695.5,-173 695.5,-161 695.5,-161 695.5,-155 701.5,-149 707.5,-149 707.5,-149 820.5,-149 820.5,-149 826.5,-149 832.5,-155 832.5,-161 832.5,-161 832.5,-173 832.5,-173 832.5,-179 826.5,-185 820.5,-185"/>
<text text-anchor="middle" x="764" y="-164.5" font-family="sans" font-size="10.00">edit_make_genome_size</text>
</g>
<!-- 27&#45;&gt;15 -->
<g id="edge23" class="edge">
<title>27&#45;&gt;15</title>
<path fill="none" stroke="grey" stroke-width="2" d="M712.41,-148.97C682.53,-139.1 644.74,-126.62 613.34,-116.25"/>
<polygon fill="grey" stroke="grey" stroke-width="2" points="614.41,-112.92 603.82,-113.11 612.22,-119.57 614.41,-112.92"/>
</g>
<!-- 28&#45;&gt;15 -->
<g id="edge25" class="edge">
<title>28&#45;&gt;15</title>
<path fill="none" stroke="grey" stroke-width="2" d="M737.31,-220.99C722.18,-211.01 703.1,-197.87 687,-185 668.57,-170.28 667.13,-162.8 648,-149 632.11,-137.53 613.47,-126.72 596.87,-117.89"/>
<polygon fill="grey" stroke="grey" stroke-width="2" points="598.37,-114.72 587.89,-113.19 595.13,-120.93 598.37,-114.72"/>
</g>
<!-- 28&#45;&gt;27 -->
<g id="edge39" class="edge">
<title>28&#45;&gt;27</title>
<path fill="none" stroke="grey" stroke-width="2" d="M764,-220.7C764,-212.98 764,-203.71 764,-195.11"/>
<polygon fill="grey" stroke="grey" stroke-width="2" points="767.5,-195.1 764,-185.1 760.5,-195.1 767.5,-195.1"/>
</g>
</g>
</svg>
